<?xml version="1.0" standalone="no"?>
<!DOCTYPE svg PUBLIC "-//W3C//DTD SVG 20010904//EN"
 "http://www.w3.org/TR/2001/REC-SVG-20010904/DTD/svg10.dtd">
<svg version="1.0" xmlns="http://www.w3.org/2000/svg"
 width="588.000000pt" height="583.000000pt" viewBox="0 0 588.000000 583.000000"
 preserveAspectRatio="xMidYMid meet">

<g transform="translate(0.000000,583.000000) scale(0.100000,-0.100000)"
fill="#000000" stroke="none">
<path d="M3885 4826 c-22 -6 -42 -13 -45 -16 -3 -3 -24 -15 -47 -28 -36 -19
-43 -21 -43 -8 0 18 -45 23 -55 6 -3 -6 -17 -7 -29 -4 -13 3 -29 0 -37 -8 -25
-25 -88 -57 -123 -63 -25 -5 -44 -2 -67 12 -24 13 -33 15 -36 6 -3 -7 -14 -13
-24 -13 -11 0 -17 5 -14 10 3 6 1 10 -4 10 -6 0 -11 -4 -11 -10 0 -13 -27 -13
-32 0 -2 6 -32 14 -68 20 -36 5 -80 12 -97 16 -19 3 -33 2 -33 -3 0 -10 -63
-8 -79 2 -5 3 -18 -10 -29 -29 -18 -31 -26 -35 -79 -42 l-58 -7 45 -12 45 -12
-30 -12 c-16 -7 -37 -10 -47 -8 -10 3 -16 2 -13 -3 5 -9 -28 -15 -155 -31 -62
-8 -89 -16 -100 -29 -19 -23 -110 -36 -110 -15 0 20 -23 24 -45 9 -10 -8 -13
-14 -7 -14 7 0 12 -11 12 -25 0 -14 5 -25 10 -25 19 0 10 -27 -20 -55 -23 -22
-27 -32 -19 -42 20 -24 37 -14 110 67 39 44 76 80 80 80 21 0 4 -26 -62 -96
l-71 -75 33 -30 c18 -16 36 -29 40 -29 10 0 39 -29 39 -40 0 -4 -53 -10 -117
-12 l-118 -4 -67 -44 c-36 -25 -71 -52 -76 -61 -10 -15 -3 -14 54 3 83 25 128
21 132 -9 4 -30 10 -29 63 9 l44 32 -58 -63 c-32 -35 -56 -65 -54 -68 8 -7
166 48 174 61 25 41 141 71 283 72 115 1 115 1 243 54 71 28 131 49 134 46 6
-6 -45 -30 -169 -78 -81 -31 -99 -48 -49 -48 101 0 292 24 355 45 232 77 441
169 533 236 116 84 189 170 186 220 -1 9 -13 28 -27 42 -14 15 -26 31 -26 37
0 13 -25 40 -36 40 -4 0 -15 6 -23 13 -32 26 -65 33 -106 23z"/>
<path d="M2245 4539 c-3 -4 2 -13 11 -20 12 -10 17 -10 23 -1 4 7 33 14 65 16
89 6 80 17 -12 15 -46 -2 -85 -6 -87 -10z"/>
<path d="M2316 4476 c5 -14 62 -46 82 -46 10 0 62 46 62 55 0 3 -34 5 -75 5
-60 0 -73 -3 -69 -14z"/>
<path d="M1535 4269 c5 -14 3 -20 -7 -18 -7 1 -26 -4 -43 -11 -115 -51 -140
-60 -156 -55 -9 3 -20 1 -24 -5 -3 -5 -23 -18 -43 -29 -103 -51 -142 -80 -142
-102 0 -25 -33 -25 -68 -1 -15 10 -35 21 -44 25 -15 5 -15 4 -1 -21 18 -31 80
-82 100 -82 7 0 13 7 13 15 0 11 11 15 43 15 32 0 56 8 88 30 24 17 67 37 95
45 28 9 68 24 89 35 22 11 48 20 60 20 28 0 103 30 212 85 116 58 140 83 48
50 -48 -17 -105 -19 -105 -4 0 8 -16 10 -50 5 -42 -6 -49 -4 -44 9 4 10 0 15
-11 15 -12 0 -15 -5 -10 -21z"/>
<path d="M1755 4113 c-105 -53 -200 -106 -213 -117 -65 -58 -75 -76 -45 -76
17 0 85 47 92 63 2 5 7 3 12 -4 6 -10 9 -11 9 -1 0 6 8 12 18 12 17 0 83 23
154 54 21 9 63 16 94 16 45 0 64 5 88 24 55 42 79 66 68 66 -6 0 -13 -4 -16
-9 -3 -4 -34 -18 -68 -31 -35 -12 -69 -27 -76 -33 -7 -5 -15 -7 -18 -4 -6 5
16 27 94 92 17 15 32 31 32 36 0 21 -46 3 -225 -88z"/>
<path d="M2150 4187 c-58 -35 -192 -139 -186 -144 3 -3 39 10 79 30 77 36 157
99 157 123 0 18 -8 17 -50 -9z"/>
<path d="M2508 4050 c-57 -30 -80 -50 -56 -50 7 1 24 7 38 15 14 8 41 15 60
15 49 1 68 14 51 34 -18 21 -26 20 -93 -14z"/>
<path d="M2385 3980 c-3 -5 -2 -10 4 -10 5 0 13 5 16 10 3 6 2 10 -4 10 -5 0
-13 -4 -16 -10z"/>
<path d="M2045 3960 c-3 -5 -2 -10 4 -10 5 0 13 5 16 10 3 6 2 10 -4 10 -5 0
-13 -4 -16 -10z"/>
<path d="M1302 3818 c3 -7 19 -17 36 -22 18 -5 32 -13 32 -17 0 -5 4 -9 8 -9
5 0 8 10 6 23 -4 33 -4 33 -13 18 -8 -12 -13 -12 -35 2 -30 20 -39 21 -34 5z"/>
<path d="M2048 3773 c7 -3 16 -2 19 1 4 3 -2 6 -13 5 -11 0 -14 -3 -6 -6z"/>
<path d="M1875 3681 c-18 -8 -18 -9 8 -16 29 -8 104 0 124 13 17 11 -107 13
-132 3z"/>
<path d="M1286 3634 c-20 -19 -20 -25 -2 -18 8 3 17 12 20 20 7 18 1 18 -18
-2z"/>
<path d="M2085 3625 c-28 -12 -28 -13 -7 -14 13 -1 30 6 38 14 19 18 9 18 -31
0z"/>
<path d="M1725 3545 c-16 -7 -23 -14 -15 -14 8 0 26 6 40 14 32 18 14 18 -25
0z"/>
<path d="M2068 3553 c7 -3 16 -2 19 1 4 3 -2 6 -13 5 -11 0 -14 -3 -6 -6z"/>
<path d="M1920 3532 c8 -3 -5 -14 -35 -29 -36 -17 -42 -21 -20 -17 16 3 46 16
67 28 l38 23 -32 0 c-18 0 -26 -3 -18 -5z"/>
<path d="M1704 3475 c-4 -8 -12 -15 -18 -15 -7 0 -21 -7 -32 -15 -17 -13 -16
-14 16 -5 19 6 43 19 54 30 19 18 19 20 3 20 -10 0 -20 -7 -23 -15z"/>
<path d="M1020 3430 c-9 -6 -10 -10 -3 -10 6 0 15 5 18 10 8 12 4 12 -15 0z"/>
<path d="M3046 3425 c-11 -8 -15 -15 -9 -15 6 0 16 7 23 15 16 19 11 19 -14 0z"/>
<path d="M3640 3412 c0 -5 -10 -14 -22 -20 -13 -6 -18 -11 -12 -11 7 -1 22 8
35 19 13 10 18 19 12 20 -7 0 -13 -4 -13 -8z"/>
<path d="M1211 3401 c-7 -5 -11 -15 -9 -22 3 -10 8 -7 17 9 13 24 12 26 -8 13z"/>
<path d="M1595 3400 c-8 -13 35 -13 55 0 11 7 7 10 -17 10 -17 0 -35 -4 -38
-10z"/>
<path d="M2620 3400 c-9 -6 -10 -10 -3 -10 6 0 15 5 18 10 8 12 4 12 -15 0z"/>
<path d="M2905 3380 c-3 -6 1 -7 9 -4 18 7 21 14 7 14 -6 0 -13 -4 -16 -10z"/>
<path d="M2980 3380 c-8 -5 -10 -10 -5 -10 6 0 17 5 25 10 8 5 11 10 5 10 -5
0 -17 -5 -25 -10z"/>
<path d="M749 3361 c-13 -11 -21 -22 -18 -25 3 -3 16 5 29 19 28 30 22 33 -11
6z"/>
<path d="M980 3370 c-13 -8 -13 -10 2 -10 9 0 20 5 23 10 8 13 -5 13 -25 0z"/>
<path d="M3660 3370 c-35 -7 -35 -7 -5 -9 17 0 37 4 45 9 17 11 11 11 -40 0z"/>
<path d="M1894 3335 c-18 -13 -18 -14 4 -8 12 3 25 9 28 14 8 14 -10 11 -32
-6z"/>
<path d="M3660 3330 c-11 -8 -7 -9 15 -4 37 8 45 14 19 14 -10 0 -26 -5 -34
-10z"/>
<path d="M3765 3320 c-3 -5 -2 -10 4 -10 5 0 13 5 16 10 3 6 2 10 -4 10 -5 0
-13 -4 -16 -10z"/>
<path d="M905 3310 c-3 -6 1 -7 9 -4 18 7 21 14 7 14 -6 0 -13 -4 -16 -10z"/>
<path d="M753 3295 c-18 -8 -33 -18 -33 -24 0 -10 56 15 65 30 8 11 7 11 -32
-6z"/>
<path d="M2806 3294 c-23 -23 -20 -30 4 -9 11 10 20 20 20 22 0 7 -9 2 -24
-13z"/>
<path d="M3630 3300 c-14 -4 -20 -9 -15 -9 6 -1 3 -6 -5 -11 -8 -5 -10 -10 -5
-10 6 0 24 9 40 20 31 21 27 24 -15 10z"/>
<path d="M3724 3294 c-18 -14 -18 -15 4 -4 12 6 22 13 22 15 0 8 -5 6 -26 -11z"/>
<path d="M1330 3270 c-6 -11 -8 -20 -6 -20 3 0 10 9 16 20 6 11 8 20 6 20 -3
0 -10 -9 -16 -20z"/>
<path d="M1873 3266 c-13 -6 -23 -14 -23 -18 0 -5 -6 -8 -13 -8 -7 0 -30 -16
-50 -35 -25 -24 -32 -35 -21 -35 20 0 106 50 149 85 l30 25 -25 -1 c-14 -1
-35 -6 -47 -13z"/>
<path d="M3833 3269 c-18 -5 -33 -12 -33 -14 0 -7 39 1 70 13 31 13 6 13 -37
1z"/>
<path d="M1249 3243 l-24 -28 28 24 c25 23 32 31 24 31 -2 0 -14 -12 -28 -27z"/>
<path d="M3295 3244 c-16 -12 -26 -26 -22 -30 10 -10 59 14 53 25 -4 5 -1 11
6 13 7 3 8 7 3 10 -6 3 -23 -5 -40 -18z"/>
<path d="M3696 3255 c-11 -8 -15 -15 -9 -15 6 0 16 7 23 15 16 19 11 19 -14 0z"/>
<path d="M3523 3247 c-18 -7 -40 -20 -50 -29 -16 -17 -16 -18 3 -18 10 0 36
11 57 25 53 37 50 44 -10 22z"/>
<path d="M2615 3240 c-8 -13 5 -13 25 0 13 8 13 10 -2 10 -9 0 -20 -4 -23 -10z"/>
<path d="M3642 3224 c-33 -23 -76 -64 -68 -64 12 0 96 63 96 72 0 11 -2 10
-28 -8z"/>
<path d="M687 3199 c-19 -15 -37 -25 -41 -22 -3 3 -6 1 -6 -5 0 -7 -6 -12 -13
-12 -14 0 -91 -56 -142 -103 -20 -19 -24 -25 -11 -21 14 5 17 4 12 -5 -12 -18
170 103 246 165 24 20 25 22 8 27 -11 3 -32 -7 -53 -24z"/>
<path d="M1894 3215 c-18 -13 -18 -14 4 -8 12 3 25 9 28 14 8 14 -10 11 -32
-6z"/>
<path d="M2710 3220 c-9 -6 -10 -10 -3 -10 6 0 15 5 18 10 8 12 4 12 -15 0z"/>
<path d="M1644 3205 c-21 -5 -39 -16 -42 -23 -5 -16 17 -15 50 2 23 12 27 12
32 0 4 -10 2 -12 -6 -8 -7 4 -8 3 -4 -4 4 -7 18 -12 32 -12 14 0 23 4 20 9 -3
5 1 11 9 15 52 19 -29 39 -91 21z"/>
<path d="M1845 3190 c-3 -6 1 -7 9 -4 18 7 21 14 7 14 -6 0 -13 -4 -16 -10z"/>
<path d="M2320 3190 c-8 -5 -10 -10 -5 -10 6 0 17 5 25 10 8 5 11 10 5 10 -5
0 -17 -5 -25 -10z"/>
<path d="M2675 3190 c-3 -6 1 -7 9 -4 18 7 21 14 7 14 -6 0 -13 -4 -16 -10z"/>
<path d="M3515 3175 c-33 -12 -82 -34 -110 -49 l-50 -27 43 6 c46 7 153 57
172 80 7 8 11 14 9 14 -2 -1 -31 -11 -64 -24z"/>
<path d="M72 3173 c-18 -9 -42 -27 -52 -41 -21 -26 -27 -77 -11 -86 5 -4 8 1
7 11 -3 21 25 55 83 99 48 37 33 47 -27 17z"/>
<path d="M4080 3180 c-18 -12 -2 -12 25 0 13 6 15 9 5 9 -8 0 -22 -4 -30 -9z"/>
<path d="M1152 3158 c-12 -12 -22 -18 -22 -12 0 6 -13 9 -30 6 -16 -2 -28 -8
-25 -12 3 -4 -6 -7 -20 -7 -14 0 -22 4 -18 10 3 6 1 7 -6 3 -6 -4 -9 -11 -6
-16 3 -5 -8 -17 -25 -26 -16 -10 -30 -22 -30 -26 0 -16 25 -7 52 19 35 33 37
18 3 -20 -28 -29 -54 -34 -73 -15 -13 13 -16 3 -12 -36 3 -36 -64 -73 -97 -53
-14 9 -82 -48 -71 -58 8 -8 154 32 193 54 17 9 43 26 58 39 27 21 28 22 6 22
-30 0 -16 13 17 16 28 3 67 35 116 97 32 40 26 51 -10 15z"/>
<path d="M4917 3151 c-27 -9 -53 -24 -58 -34 -17 -30 17 -31 74 -4 28 14 44
26 33 26 -15 1 -16 4 -6 16 7 8 11 15 9 14 -2 0 -26 -8 -52 -18z"/>
<path d="M426 3138 c-18 -21 -18 -22 0 -35 17 -13 17 -13 -6 -11 -17 2 -24 -2
-22 -10 1 -8 -1 -11 -6 -8 -9 5 -42 -26 -57 -54 -6 -12 -5 -13 5 -3 9 9 19 9
32 2 15 -8 25 -6 41 8 12 10 27 23 35 28 8 6 35 30 61 54 25 24 37 37 26 28
-26 -21 -68 -19 -60 3 5 12 4 13 -6 3 -18 -18 -30 -16 -23 2 8 21 2 19 -20 -7z"/>
<path d="M750 3150 c-9 -6 -10 -10 -3 -10 6 0 15 5 18 10 8 12 4 12 -15 0z"/>
<path d="M1710 3124 c-52 -19 -99 -32 -105 -30 -5 1 16 11 49 22 75 24 59 29
-30 9 -38 -9 -74 -17 -81 -17 -7 -1 -10 -5 -8 -9 3 -4 -2 -10 -11 -13 -8 -3
-12 -2 -9 4 10 17 -7 11 -22 -7 -8 -10 -12 -12 -8 -5 7 14 -11 17 -20 2 -4 -6
-11 -8 -16 -5 -5 4 -12 0 -15 -9 -3 -8 -19 -18 -35 -21 -16 -4 -29 -11 -29
-16 0 -13 64 2 73 18 5 7 12 11 17 8 5 -3 32 4 61 15 28 12 56 19 62 17 6 -2
-3 -8 -19 -14 -16 -6 -65 -25 -109 -42 -58 -21 -79 -34 -77 -45 2 -9 -2 -16
-8 -16 -5 0 -10 4 -10 9 0 4 -24 2 -52 -6 -42 -10 -65 -25 -107 -68 -31 -30
-52 -57 -49 -60 3 -4 22 11 42 32 19 21 36 33 36 27 0 -18 -73 -85 -88 -79 -7
3 -20 -2 -29 -10 -10 -10 -20 -12 -30 -6 -11 6 -31 1 -62 -15 -25 -14 -51 -22
-59 -19 -7 2 -11 1 -8 -4 7 -10 -17 -32 -53 -47 l-26 -12 25 -10 c23 -10 24
-11 3 -11 -12 -1 -23 -6 -25 -12 -2 -5 -11 -11 -21 -13 -9 -1 -28 -12 -41 -23
-13 -12 -27 -19 -29 -16 -3 2 -10 -5 -17 -16 -6 -12 -15 -21 -21 -21 -5 0 -22
-12 -37 -26 -15 -14 -46 -37 -70 -51 -27 -16 -41 -31 -38 -39 3 -8 -1 -14 -9
-14 -12 0 -60 -36 -127 -95 -10 -8 -21 -15 -24 -15 -12 0 -64 -42 -64 -51 0
-11 73 29 79 44 4 11 82 59 87 54 2 -2 -14 -16 -37 -31 -22 -15 -38 -30 -35
-33 3 -4 14 1 24 10 10 10 23 17 29 17 5 0 18 9 28 20 10 11 15 20 10 20 -8 0
29 29 60 46 10 6 21 16 23 24 3 9 0 10 -9 4 -12 -7 -12 -5 0 9 14 18 36 24 26
7 -8 -13 -1 -13 40 4 19 8 35 22 35 30 0 8 15 26 33 41 17 14 42 35 55 47 12
11 28 18 36 15 8 -3 20 1 27 9 10 12 9 13 -7 8 -19 -6 -17 -4 43 46 13 10 59
30 71 30 3 0 -9 -16 -28 -35 -19 -19 -30 -35 -24 -35 5 0 31 23 58 50 51 53
124 97 379 229 86 45 157 87 157 92 0 5 11 9 24 9 14 0 28 5 32 12 5 8 2 9
-10 5 -10 -4 -15 -3 -11 4 4 5 14 8 23 5 10 -3 64 19 122 49 58 30 101 54 95
53 -5 0 -53 -15 -105 -34z m-659 -367 c-23 -21 -45 -37 -48 -34 -3 3 11 20 31
37 20 18 33 36 30 41 -3 5 3 6 12 2 14 -5 10 -13 -25 -46z m-337 -232 c-10 -8
-23 -14 -29 -14 -5 0 -1 6 9 14 11 8 24 15 30 15 5 0 1 -7 -10 -15z"/>
<path d="M1366 3135 c-3 -8 -1 -15 4 -15 6 0 10 7 10 15 0 8 -2 15 -4 15 -2 0
-6 -7 -10 -15z"/>
<path d="M2365 3130 c-23 -26 -8 -26 25 0 18 14 21 20 9 20 -9 0 -24 -9 -34
-20z"/>
<path d="M2429 3133 c-13 -17 -13 -17 6 -3 11 8 22 16 24 17 2 2 0 3 -6 3 -6
0 -17 -8 -24 -17z"/>
<path d="M3124 3135 c-18 -13 -18 -14 4 -8 12 3 25 9 28 14 8 14 -10 11 -32
-6z"/>
<path d="M3299 3140 c-8 -5 -38 -17 -65 -26 -27 -9 -51 -19 -54 -23 -3 -3 -21
-14 -40 -24 l-35 -17 45 6 c54 7 114 34 155 68 29 25 26 35 -6 16z"/>
<path d="M3346 3135 c-11 -8 -15 -15 -9 -15 6 0 16 7 23 15 16 19 11 19 -14 0z"/>
<path d="M5025 3135 c-23 -10 -25 -14 -10 -14 21 -1 52 15 45 23 -3 2 -18 -2
-35 -9z"/>
<path d="M2164 3090 c-39 -17 -61 -36 -52 -45 2 -3 29 11 58 30 60 38 57 44
-6 15z"/>
<path d="M2398 3081 c-18 -17 -28 -31 -23 -31 16 0 71 47 63 55 -3 3 -21 -7
-40 -24z"/>
<path d="M2210 3065 c-57 -36 -54 -47 5 -19 34 16 76 54 59 54 -5 0 -34 -16
-64 -35z"/>
<path d="M3370 3085 c-46 -10 -66 -23 -120 -75 -36 -34 -74 -66 -85 -71 -11
-6 3 10 30 35 79 72 29 56 -60 -19 -79 -66 -229 -163 -310 -201 -44 -20 -75
-41 -75 -49 0 -22 14 -19 98 26 79 42 174 106 248 166 23 19 46 33 50 32 21
-4 35 3 80 41 34 28 58 40 80 40 24 0 44 11 81 45 26 24 46 44 43 44 -3 -1
-30 -7 -60 -14z"/>
<path d="M4802 3080 c-34 -28 -23 -47 11 -20 26 20 36 40 20 40 -5 -1 -19 -9
-31 -20z"/>
<path d="M339 3063 l-24 -28 28 24 c25 23 32 31 24 31 -2 0 -14 -12 -28 -27z"/>
<path d="M1239 3069 l-24 -20 28 17 c15 9 27 18 27 20 0 8 -8 4 -31 -17z"/>
<path d="M1400 3080 c0 -5 4 -10 9 -10 6 0 13 5 16 10 3 6 -1 10 -9 10 -9 0
-16 -4 -16 -10z"/>
<path d="M2284 3066 c-21 -18 -24 -25 -13 -26 17 0 56 37 47 46 -3 3 -19 -6
-34 -20z"/>
<path d="M210 3050 c0 -5 5 -10 11 -10 6 0 9 -7 5 -15 -4 -13 -2 -13 14 -5 26
14 30 13 23 -7 -4 -10 5 -4 19 12 15 17 25 31 24 33 -2 1 -16 -2 -31 -8 -20
-7 -31 -8 -39 0 -13 13 -26 13 -26 0z"/>
<path d="M3163 3043 c-13 -2 -23 -11 -23 -19 0 -20 20 -17 50 6 25 20 20 22
-27 13z"/>
<path d="M157 3022 c-26 -16 -44 -48 -34 -59 6 -5 67 35 79 52 7 10 1 26 -10
24 -4 0 -19 -8 -35 -17z"/>
<path d="M4638 3020 c-36 -3 -70 -8 -74 -12 -13 -13 109 -8 161 7 55 16 54 16
-87 5z"/>
<path d="M4795 3009 c-22 -11 -32 -17 -22 -15 9 3 17 1 17 -4 0 -6 -5 -10 -12
-10 -6 0 -9 -2 -6 -5 3 -3 20 1 39 9 25 11 28 15 14 16 -16 1 -14 4 10 15 17
7 23 13 15 13 -8 0 -33 -8 -55 -19z"/>
<path d="M4920 3020 c-9 -6 -10 -10 -3 -10 6 0 15 5 18 10 8 12 4 12 -15 0z"/>
<path d="M604 2982 c-22 -20 -49 -42 -60 -48 -10 -7 -16 -14 -13 -18 3 -3 32
19 65 49 32 30 57 54 54 54 -3 0 -23 -16 -46 -37z"/>
<path d="M2165 3012 c-5 -4 -19 -18 -30 -32 -16 -21 -14 -20 13 4 29 27 37 36
30 36 -2 0 -7 -4 -13 -8z"/>
<path d="M2280 3007 c-14 -8 -24 -19 -22 -25 1 -7 -5 -12 -13 -12 -8 0 -15 -4
-15 -10 0 -5 -15 -16 -32 -24 -18 -7 -44 -26 -58 -41 l-25 -28 45 29 c54 34
160 113 160 120 0 7 -14 4 -40 -9z"/>
<path d="M2110 3000 c0 -5 7 -7 15 -4 8 4 15 8 15 10 0 2 -7 4 -15 4 -8 0 -15
-4 -15 -10z"/>
<path d="M754 2967 c-16 -14 -23 -26 -17 -30 5 -3 23 7 38 23 34 35 18 40 -21
7z"/>
<path d="M3265 2980 c-3 -6 1 -7 9 -4 18 7 21 14 7 14 -6 0 -13 -4 -16 -10z"/>
<path d="M1115 2960 c-10 -11 -13 -20 -8 -20 13 0 38 29 31 35 -3 3 -13 -4
-23 -15z"/>
<path d="M2035 2963 c-16 -8 -52 -30 -80 -48 -27 -17 -59 -35 -69 -39 -10 -3
-16 -9 -13 -12 6 -6 114 29 157 51 14 7 36 25 49 39 22 24 23 26 5 26 -10 -1
-32 -8 -49 -17z"/>
<path d="M3744 2956 c-18 -8 -35 -19 -39 -25 -3 -6 12 -2 34 10 23 11 41 23
41 25 0 5 0 5 -36 -10z"/>
<path d="M4458 2944 c-38 -20 -36 -28 2 -9 17 9 30 18 30 20 0 7 -1 6 -32 -11z"/>
<path d="M155 2940 c3 -5 -6 -17 -20 -26 -39 -25 -21 -29 20 -4 34 21 39 40 9
40 -8 0 -13 -4 -9 -10z"/>
<path d="M3659 2946 c-2 -2 -26 -6 -53 -9 -53 -7 -129 -49 -99 -56 9 -2 22 4
28 13 17 22 28 20 16 -3 -11 -20 -67 -44 -82 -35 -5 2 -19 -2 -32 -11 -30 -19
-60 -28 -107 -30 -37 -1 -86 -22 -76 -33 10 -9 -146 -82 -176 -82 -15 0 -30
-5 -34 -12 -5 -8 0 -9 17 -5 23 6 23 6 4 -9 -11 -8 -31 -14 -45 -13 -14 1 -34
1 -45 0 -18 -2 -19 -3 -2 -10 13 -5 -2 -13 -57 -31 -41 -14 -72 -28 -70 -31 7
-11 -25 -31 -37 -23 -7 4 -9 3 -6 -3 4 -6 -16 -20 -46 -32 -28 -12 -59 -26
-67 -31 -8 -6 -24 -14 -35 -19 -12 -5 -27 -17 -35 -27 -13 -16 -13 -17 2 -11
10 3 27 3 39 -1 20 -8 20 -9 -12 -37 -28 -23 -35 -25 -37 -11 -2 9 -10 16 -18
16 -15 0 -19 15 -6 23 4 2 1 2 -7 0 -80 -21 -105 -23 -113 -11 -6 10 -8 9 -8
-4 0 -10 -10 -20 -24 -24 -13 -3 -35 -17 -48 -31 -22 -25 -21 -25 40 6 35 18
69 30 75 28 7 -2 0 -10 -15 -17 -15 -7 -30 -21 -33 -30 -7 -21 -119 -130 -134
-130 -5 0 -13 5 -16 10 -4 6 -11 8 -16 5 -5 -4 -9 -4 -9 -1 0 3 16 16 36 30
61 41 20 38 -98 -8 -62 -24 -135 -51 -163 -61 -27 -9 -59 -21 -70 -25 -40 -16
-118 -40 -122 -37 -4 5 71 36 267 112 151 59 169 68 151 79 -16 11 -13 29 4
22 8 -3 21 4 29 16 9 13 19 17 28 12 7 -4 10 -4 6 1 -12 13 12 35 36 35 13 0
33 11 46 25 13 14 29 25 36 25 19 0 29 21 15 30 -8 4 1 9 22 13 20 3 50 18 67
34 17 15 59 42 92 58 34 17 63 35 65 42 4 10 -113 -45 -142 -67 -18 -13 -198
-88 -267 -111 -38 -12 -79 -32 -94 -45 -14 -13 -29 -24 -34 -24 -5 0 -17 -8
-27 -18 -10 -11 -38 -30 -63 -43 -57 -30 -54 -28 -47 -35 4 -4 12 -2 19 3 7 6
38 19 68 31 82 30 110 44 105 52 -7 11 14 26 70 48 88 34 91 35 37 3 -29 -18
-62 -41 -72 -51 -11 -11 -25 -20 -30 -20 -6 0 -49 -22 -98 -50 -48 -27 -112
-59 -142 -71 -68 -27 -168 -75 -185 -89 -25 -20 -148 -79 -156 -74 -5 3 -7 -1
-4 -8 3 -7 -4 -19 -15 -26 -12 -7 -20 -8 -20 -2 0 5 5 10 10 10 6 0 10 5 10
10 0 6 -8 5 -20 -2 -11 -7 -18 -20 -15 -28 3 -10 -13 -23 -50 -40 -30 -14 -55
-28 -55 -32 0 -4 -7 -5 -14 -2 -8 3 -25 -4 -38 -16 -12 -11 -34 -23 -48 -27
-39 -9 -62 -33 -49 -50 9 -10 5 -13 -19 -13 -17 0 -64 -15 -104 -34 -40 -19
-92 -37 -115 -41 -44 -7 -53 -20 -30 -44 10 -11 7 -13 -16 -9 -35 7 -100 -12
-129 -36 -11 -10 -39 -21 -62 -24 -23 -3 -60 -18 -82 -33 -62 -42 -138 -70
-174 -63 -26 6 -30 3 -30 -14 0 -12 -4 -24 -10 -27 -18 -11 -113 -33 -129 -30
-9 2 -31 4 -48 4 -22 1 -33 6 -33 16 0 8 -4 15 -9 15 -9 0 -71 -26 -156 -65
-27 -12 -87 -38 -132 -56 -46 -19 -83 -40 -83 -46 0 -14 24 -7 92 28 58 30
268 101 243 83 -11 -9 -91 -50 -177 -92 -149 -73 -158 -79 -158 -106 0 -28 1
-28 22 -12 54 39 120 66 158 66 30 0 45 6 62 25 24 27 81 50 99 39 8 -4 9 -3
5 4 -5 8 0 11 11 10 37 -3 53 2 53 17 0 12 7 14 26 9 17 -4 29 -2 34 6 5 8 19
14 32 16 12 1 34 5 48 9 22 6 21 2 -13 -29 -21 -19 -55 -42 -75 -51 -20 -10
-59 -28 -87 -41 -27 -13 -84 -37 -125 -53 -41 -16 -114 -47 -163 -70 l-87 -40
0 -57 0 -56 33 6 c17 3 51 8 75 12 23 4 40 9 36 13 -3 3 25 11 63 17 52 9 59
12 31 13 -59 2 -45 19 22 27 33 3 58 9 56 13 -2 3 13 7 34 7 32 2 38 -1 33
-15 -3 -12 -1 -12 11 3 9 11 16 23 16 27 0 4 53 24 118 44 64 20 132 41 150
47 18 5 31 12 29 14 -4 4 -149 -35 -191 -52 -14 -5 -17 -3 -14 7 2 7 42 23 89
35 46 13 75 23 64 24 -18 1 -17 3 5 12 14 6 66 29 115 51 110 48 145 59 145
45 0 -5 7 -8 14 -5 10 4 13 1 9 -8 -16 -42 60 -17 332 110 39 18 97 45 130 60
32 15 71 35 85 45 14 10 53 27 87 38 122 40 242 123 229 158 -7 18 77 76 117
80 16 2 36 9 45 16 53 44 137 81 187 83 28 1 59 6 70 12 11 6 34 14 52 18 18
3 48 17 68 31 25 16 44 22 60 18 17 -4 43 4 84 27 34 19 61 37 61 41 0 4 17
16 38 27 38 20 102 74 102 87 0 3 -13 4 -30 1 -17 -4 -30 -2 -30 3 0 6 -12 10
-26 10 -23 0 -24 -2 -10 -15 8 -8 21 -15 28 -16 7 0 4 -4 -8 -9 -24 -9 -134
-25 -149 -21 -5 1 -17 3 -27 4 -9 1 -14 5 -12 9 3 4 -1 8 -8 8 -7 0 -2 11 12
24 21 21 36 25 100 27 41 2 99 -1 128 -5 44 -7 56 -5 73 10 13 12 16 20 8 24
-6 4 2 8 18 8 15 0 45 4 66 8 24 4 37 2 37 -5 0 -6 -5 -11 -12 -11 -9 0 -9 -3
-1 -11 16 -16 31 -4 48 38 11 27 12 39 4 49 -9 11 -7 14 12 15 18 1 19 3 6 6
-24 6 -50 -16 -37 -32 12 -14 -91 -36 -162 -34 -51 2 -58 8 -33 29 12 10 13
15 4 21 -8 4 11 14 47 25 32 9 66 22 76 27 15 10 15 12 -3 28 -19 16 -19 17 8
27 39 14 86 26 99 23 7 -1 14 5 18 14 3 8 17 15 31 15 22 0 25 4 22 26 -2 14
-10 30 -18 35 -10 6 -6 9 16 9 17 0 52 7 79 15 27 8 62 15 77 15 17 0 42 12
62 30 34 30 77 40 77 19 0 -7 12 -8 33 -4 36 8 59 23 52 35 -2 4 14 15 36 25
22 10 51 29 65 42 14 13 39 30 57 39 35 19 157 103 157 110 0 5 -15 5 -21 0z
m-1079 -596 c-14 -10 -27 -16 -30 -13 -6 6 30 33 44 33 6 0 0 -9 -14 -20z
m-276 -162 c-4 -5 4 -9 17 -8 13 1 38 2 54 1 27 -1 28 -3 11 -13 -10 -6 -27
-18 -37 -26 -33 -29 -103 -51 -161 -51 -31 -1 -58 4 -60 10 -2 7 -12 7 -33 -1
l-30 -11 30 25 c17 14 37 26 45 26 8 0 33 14 55 29 26 19 51 28 77 28 21 0 35
-4 32 -9z m-174 -38 c-8 -5 -19 -10 -25 -10 -5 0 -3 5 5 10 8 5 20 10 25 10 6
0 3 -5 -5 -10z m-100 -80 c0 -4 -6 -13 -14 -19 -11 -9 -15 -7 -18 12 -4 20 -1
23 14 19 10 -2 18 -8 18 -12z m-175 -80 c3 -5 1 -10 -4 -10 -6 0 -11 5 -11 10
0 6 2 10 4 10 3 0 8 -4 11 -10z m71 -5 c-11 -8 -25 -15 -30 -15 -6 0 -2 7 8
15 11 8 25 15 30 15 6 0 2 -7 -8 -15z m-356 -190 c-7 -9 -21 -13 -31 -10 -9 3
-20 1 -24 -5 -3 -5 -21 -10 -38 -9 l-32 0 40 15 c22 8 44 13 51 10 6 -2 17 0
25 5 20 13 23 11 9 -6z m-554 -146 c-14 -11 -32 -26 -39 -32 -33 -33 -68 -48
-82 -37 -16 13 -32 6 -109 -47 -53 -36 -66 -40 -66 -19 0 19 35 40 125 76 42
17 102 43 133 59 63 32 79 32 38 0z m215 -59 c13 -10 19 -19 12 -20 -6 0 -20
-3 -30 -6 -15 -5 -16 -4 -3 5 13 10 13 12 0 20 -8 6 -17 6 -20 2 -3 -4 -13
-10 -22 -14 -11 -4 -18 -17 -18 -32 0 -22 -3 -24 -20 -15 -28 15 -130 -31
-130 -59 0 -25 -13 -27 -30 -6 -7 9 -20 13 -29 11 -9 -3 -34 -7 -56 -11 -22
-3 -62 -12 -89 -20 -115 -35 -96 -9 47 61 60 30 122 54 137 54 15 0 47 7 71
16 44 15 109 31 140 33 9 1 27 -8 40 -19z m-481 -210 c-8 -5 -22 -10 -30 -10
-13 0 -13 1 0 10 8 5 22 10 30 10 13 0 13 -1 0 -10z m-270 -130 c-20 -13 -33
-13 -25 0 3 6 14 10 23 10 15 0 15 -2 2 -10z"/>
<path d="M2183 2138 c-24 -11 -31 -28 -12 -28 17 0 49 20 49 30 0 12 -9 12
-37 -2z"/>
<path d="M1070 1554 l-35 -12 32 -1 c17 -1 35 4 38 10 11 16 3 17 -35 3z"/>
<path d="M75 2920 c-16 -11 -24 -20 -17 -20 6 0 12 -7 12 -16 0 -9 5 -14 11
-12 6 2 10 7 9 12 -1 5 5 13 14 18 16 9 23 38 9 38 -5 0 -21 -9 -38 -20z"/>
<path d="M632 2909 c-24 -17 -41 -33 -39 -36 3 -2 13 2 24 11 10 8 29 24 43
35 38 31 21 24 -28 -10z"/>
<path d="M847 2913 c-53 -18 -74 -28 -65 -34 10 -7 10 -9 -2 -9 -13 0 -13 -1
0 -11 12 -8 10 -9 -10 -7 -14 2 -24 8 -23 14 1 7 -9 9 -25 6 -24 -5 -25 -6 -7
-13 19 -7 19 -8 -2 -8 -13 -1 -23 -6 -23 -11 0 -6 -11 -8 -25 -4 -21 5 -25 3
-26 -17 -1 -17 -3 -19 -6 -6 -5 19 -23 24 -23 6 0 -7 -9 -9 -24 -5 -24 6 -43
-9 -65 -52 -17 -32 1 -53 37 -43 15 4 44 3 65 -2 39 -10 67 2 67 28 0 7 19 18
43 24 23 7 49 15 57 18 8 3 4 -3 -10 -14 -14 -11 -35 -23 -47 -27 -11 -4 -26
-13 -33 -21 -9 -10 -6 -15 10 -20 12 -4 27 -2 33 4 8 8 7 11 -4 11 -7 0 -3 6
11 13 36 18 102 109 87 120 -8 6 -6 7 6 3 25 -8 49 6 81 49 32 41 28 42 -77 8z
m-62 -103 c-11 -5 -27 -9 -35 -9 -13 -1 -13 0 0 9 8 5 24 9 35 9 l20 0 -20 -9z"/>
<path d="M1920 2930 c-9 -6 -10 -10 -3 -10 6 0 15 5 18 10 8 12 4 12 -15 0z"/>
<path d="M3005 2930 c-3 -6 1 -7 9 -4 18 7 21 14 7 14 -6 0 -13 -4 -16 -10z"/>
<path d="M4590 2918 c-26 -14 -30 -18 -15 -19 11 -1 3 -5 -18 -10 -21 -5 -45
-16 -53 -24 -12 -11 -20 -12 -36 -4 -11 6 -22 8 -26 5 -3 -3 0 -6 7 -6 7 0 10
-4 6 -9 -15 -25 26 -20 123 15 79 29 100 40 80 42 -15 2 -28 9 -30 15 -2 9
-13 7 -38 -5z"/>
<path d="M4744 2925 c-25 -19 -6 -19 37 0 32 13 32 14 8 15 -14 0 -34 -7 -45
-15z"/>
<path d="M699 2921 c7 -5 11 -13 8 -18 -4 -6 4 -8 19 -5 l25 4 -27 14 c-29 15
-47 19 -25 5z"/>
<path d="M4465 2910 c-22 -10 -35 -19 -29 -19 7 -1 31 8 55 19 24 11 37 19 29
19 -8 0 -33 -9 -55 -19z"/>
<path d="M1733 2913 c-7 -2 -13 -11 -13 -19 0 -8 -8 -14 -17 -14 -10 0 -25 -5
-33 -10 -27 -17 77 -9 138 11 32 10 47 18 34 18 -13 1 -32 -4 -43 -9 -13 -8
-19 -7 -19 0 0 7 -8 9 -20 5 -21 -7 -28 10 -7 18 6 3 8 5 2 5 -5 0 -16 -2 -22
-5z"/>
<path d="M4395 2910 c-3 -6 1 -7 9 -4 18 7 21 14 7 14 -6 0 -13 -4 -16 -10z"/>
<path d="M2870 2900 c-8 -5 -10 -10 -5 -10 6 0 17 5 25 10 8 5 11 10 5 10 -5
0 -17 -5 -25 -10z"/>
<path d="M3293 2896 c-23 -11 -40 -36 -24 -36 12 0 57 37 51 42 -3 2 -15 -1
-27 -6z"/>
<path d="M989 2883 c-13 -16 -12 -17 4 -4 9 7 17 15 17 17 0 8 -8 3 -21 -13z"/>
<path d="M1353 2879 c-35 -22 -46 -37 -15 -20 22 13 58 40 52 41 -3 0 -20 -10
-37 -21z"/>
<path d="M216 2873 c-3 -7 -2 -13 3 -13 5 0 14 6 20 13 8 10 7 14 -4 14 -8 0
-16 -6 -19 -14z"/>
<path d="M2826 2881 c-3 -5 -16 -7 -28 -3 -14 3 -19 2 -14 -6 4 -7 13 -12 19
-12 16 1 54 30 40 30 -7 0 -14 -4 -17 -9z"/>
<path d="M137 2852 c-21 -15 -33 -28 -27 -30 7 -3 26 10 43 27 38 37 35 38
-16 3z"/>
<path d="M2936 2865 c-11 -8 -15 -15 -10 -15 6 0 19 7 30 15 10 8 15 14 9 14
-5 0 -19 -6 -29 -14z"/>
<path d="M4175 2871 l-50 -7 45 -5 c31 -4 50 -2 60 7 8 8 10 13 5 12 -6 0 -32
-4 -60 -7z"/>
<path d="M1883 2819 c-100 -50 -102 -52 -143 -120 -23 -39 -40 -75 -37 -82 2
-6 40 22 84 63 44 41 109 101 143 133 35 31 61 57 59 57 -2 -1 -50 -24 -106
-51z"/>
<path d="M2722 2849 c-19 -30 -11 -31 21 -3 23 20 25 24 10 24 -10 0 -24 -9
-31 -21z"/>
<path d="M1757 2834 c-16 -9 -27 -18 -24 -21 6 -5 67 24 67 32 0 8 -14 5 -43
-11z"/>
<path d="M1820 2820 c-8 -5 -10 -10 -5 -10 6 0 17 5 25 10 8 5 11 10 5 10 -5
0 -17 -5 -25 -10z"/>
<path d="M2863 2820 c-12 -5 -41 -12 -64 -15 -48 -7 -79 -21 -79 -35 0 -19 28
-15 90 13 76 35 114 62 53 37z"/>
<path d="M4055 2805 c-16 -13 -37 -25 -45 -25 -13 -1 -13 -2 1 -10 17 -10 142
28 163 50 8 10 5 11 -14 5 -14 -4 -29 -11 -34 -16 -15 -13 -26 -11 -26 6 0 21
-10 19 -45 -10z"/>
<path d="M902 2803 c-5 -10 -7 -24 -5 -30 7 -18 30 -16 37 3 5 12 2 15 -10 10
-12 -4 -14 -1 -9 14 8 25 -1 26 -13 3z"/>
<path d="M4204 2796 c-34 -12 -72 -33 -85 -45 -25 -24 -159 -91 -182 -91 -15
0 -57 -29 -42 -30 6 0 52 10 102 22 51 12 96 19 99 15 9 -9 2 -17 -22 -22 -30
-7 -93 -31 -100 -38 -12 -11 -96 -8 -89 3 8 13 8 13 -50 -9 -27 -11 -49 -25
-47 -30 1 -6 -14 -11 -36 -11 -37 0 -81 -28 -66 -42 5 -6 84 14 247 62 37 11
97 29 135 39 37 10 95 28 129 40 34 12 72 21 84 21 12 0 19 5 16 13 -6 16 -60
11 -105 -11 -43 -21 -73 -23 -80 -3 -3 8 0 11 7 7 6 -4 11 -1 11 8 0 19 11 21
27 5 8 -8 22 -5 52 9 53 26 106 38 97 23 -9 -13 -7 -13 30 -2 16 5 42 12 58
16 15 3 26 8 23 11 -3 3 -24 0 -47 -6 -28 -8 -45 -8 -49 -2 -4 7 -27 6 -66 -4
-71 -16 -103 -18 -89 -5 5 5 47 16 92 23 61 9 86 18 93 30 12 22 11 22 -34 3
-20 -8 -42 -12 -50 -9 -8 3 -18 1 -22 -5 -3 -6 -16 -11 -28 -11 -17 0 -19 2
-7 9 8 6 18 7 22 5 4 -3 8 -1 8 4 0 5 10 14 23 20 38 19 5 12 -59 -12z"/>
<path d="M500 2800 c-13 -8 -13 -10 2 -10 9 0 20 5 23 10 8 13 -5 13 -25 0z"/>
<path d="M1718 2777 c-31 -17 -56 -33 -54 -34 6 -6 94 37 106 52 16 19 16 19
-52 -18z"/>
<path d="M4366 2794 c-8 -21 -3 -26 17 -18 24 9 30 34 8 34 -10 0 -22 -7 -25
-16z"/>
<path d="M3960 2770 c-9 -6 -10 -10 -3 -10 6 0 15 5 18 10 8 12 4 12 -15 0z"/>
<path d="M466 2764 c6 -3 9 -16 6 -31 -6 -30 11 -25 29 9 7 13 7 18 1 14 -6
-3 -13 -2 -17 4 -3 5 -12 10 -18 9 -8 0 -8 -2 -1 -5z"/>
<path d="M1647 2763 c-4 -3 -58 -22 -120 -40 -89 -27 -101 -33 -61 -28 71 7
147 31 176 55 12 11 20 19 17 20 -3 0 -9 -3 -12 -7z"/>
<path d="M1435 2734 c-38 -23 -38 -24 -10 -18 56 11 65 15 65 30 0 18 -7 17
-55 -12z"/>
<path d="M2625 2734 c-22 -8 -60 -23 -85 -32 -33 -12 -40 -17 -25 -20 11 -2
23 -9 27 -15 5 -8 16 -5 36 10 16 12 48 27 71 34 51 15 76 39 40 39 -13 -1
-42 -8 -64 -16z"/>
<path d="M1061 2720 c-13 -11 -19 -20 -14 -20 6 0 18 9 28 20 23 25 17 25 -14
0z"/>
<path d="M1667 2709 c-32 -16 -61 -28 -65 -25 -4 2 -77 -31 -162 -75 -85 -43
-150 -78 -144 -78 6 -1 78 33 160 74 82 41 140 67 129 59 -11 -9 -69 -40 -129
-70 -59 -31 -107 -57 -105 -58 5 -4 116 9 149 18 20 5 19 3 -5 -9 -16 -8 -36
-14 -42 -15 -7 0 -13 -4 -13 -8 0 -5 -27 -17 -60 -28 -60 -19 -78 -34 -41 -34
11 0 35 9 53 19 39 24 125 40 114 23 -4 -7 -15 -13 -24 -13 -9 -1 -3 -5 13 -8
27 -7 25 -8 -25 -15 -105 -14 -165 -42 -153 -72 3 -9 -2 -14 -15 -14 -11 0
-33 -6 -49 -14 -15 -8 -39 -19 -53 -24 -19 -8 -8 -9 45 -5 57 3 88 13 165 50
85 41 92 47 70 54 l-25 7 27 1 c15 1 39 6 55 13 25 10 26 12 8 16 -16 3 -13 7
15 16 19 6 36 19 38 29 3 15 0 16 -24 7 -36 -14 -42 -6 -10 15 14 10 24 21 21
25 -6 9 19 20 44 20 18 0 51 42 85 108 10 19 16 35 14 37 -2 2 -29 -10 -61
-26z m-100 -145 c-3 -3 -12 -4 -19 -1 -8 3 -5 6 6 6 11 1 17 -2 13 -5z m-220
-200 c-3 -3 -12 -4 -19 -1 -8 3 -5 6 6 6 11 1 17 -2 13 -5z"/>
<path d="M2162 2706 c-15 -33 -11 -44 7 -22 7 8 11 23 9 32 -2 14 -6 11 -16
-10z"/>
<path d="M3855 2720 c-3 -5 -2 -10 4 -10 5 0 13 5 16 10 3 6 2 10 -4 10 -5 0
-13 -4 -16 -10z"/>
<path d="M3910 2720 c-12 -8 -11 -10 8 -10 12 0 22 5 22 10 0 13 -11 13 -30 0z"/>
<path d="M4350 2713 c-8 -2 -21 -7 -29 -9 -8 -2 -12 -7 -9 -9 3 -3 22 1 44 9
35 13 30 21 -6 9z"/>
<path d="M1305 2700 c-19 -8 -19 -9 2 -9 12 -1 25 4 28 9 7 12 -2 12 -30 0z"/>
<path d="M1880 2691 c-14 -27 -13 -41 4 -41 20 0 37 25 30 44 -8 21 -21 20
-34 -3z"/>
<path d="M3945 2701 c-11 -5 -24 -6 -29 -3 -5 3 -6 0 -2 -6 3 -5 0 -13 -6 -16
-7 -3 -2 -3 12 0 14 4 34 13 45 20 21 15 12 17 -20 5z"/>
<path d="M635 2675 c-22 -7 -58 -22 -80 -34 -21 -12 -51 -21 -65 -20 -24 1
-24 1 6 14 30 13 54 45 35 45 -5 0 -12 -6 -14 -12 -4 -10 -6 -10 -6 0 -1 16
-77 5 -110 -17 -13 -8 -39 -14 -57 -13 -22 2 -36 -2 -40 -11 -5 -14 -27 -15
-57 -2 -10 4 -28 3 -40 -4 -19 -10 -17 -10 13 -5 32 6 34 5 20 -12 -14 -16
-13 -17 4 -11 18 7 18 6 2 -17 -10 -16 -12 -27 -6 -31 14 -8 80 16 80 30 0 6
3 5 8 -2 12 -18 148 12 237 52 42 19 88 35 104 35 31 0 79 29 49 30 -9 0 -20
-4 -23 -10 -3 -5 -11 -10 -16 -10 -6 0 -7 5 -4 10 3 6 5 10 3 9 -2 0 -21 -6
-43 -14z"/>
<path d="M1515 2680 c-11 -5 -45 -9 -76 -9 -54 -1 -56 -2 -51 -26 4 -22 -2
-28 -44 -47 -51 -22 -120 -30 -117 -13 1 6 5 19 9 30 7 16 1 14 -31 -11 -74
-56 -94 -66 -114 -54 -26 14 -56 13 -69 -2 -18 -22 161 -15 240 9 89 27 320
135 283 132 -6 0 -19 -4 -30 -9z m-75 -30 c0 -5 -4 -10 -10 -10 -5 0 -10 5
-10 10 0 6 5 10 10 10 6 0 10 -4 10 -10z"/>
<path d="M2706 2675 c-11 -8 -15 -15 -10 -15 6 0 19 7 30 15 10 8 15 14 9 14
-5 0 -19 -6 -29 -14z"/>
<path d="M109 2649 c-16 -18 -27 -34 -24 -37 3 -3 6 -3 8 -1 1 2 15 19 31 37
17 17 26 32 22 32 -4 0 -21 -14 -37 -31z"/>
<path d="M2657 2673 c-4 -3 -2 -12 4 -20 14 -16 5 -17 -20 -2 -14 9 -25 9 -49
-2 -18 -8 -31 -18 -31 -24 3 -26 -4 -38 -9 -18 -7 22 -8 22 -42 5 -19 -9 -37
-19 -40 -23 -8 -11 -81 -37 -125 -44 -40 -7 -120 -43 -112 -51 2 -2 27 1 56 7
28 6 58 8 66 5 9 -3 15 0 15 9 0 7 15 17 33 20 17 4 38 12 46 19 12 9 13 8 8
-7 -4 -10 -4 -17 0 -15 11 5 102 46 136 61 15 7 30 20 33 29 3 10 10 18 15 18
6 0 7 -4 4 -10 -9 -15 8 -12 31 5 12 9 14 14 5 15 -7 0 -11 6 -7 15 5 15 -5
20 -17 8z"/>
<path d="M3812 2658 c-7 -7 -12 -15 -12 -20 0 -12 28 2 34 18 7 17 -6 18 -22
2z"/>
<path d="M4310 2663 c-51 -8 -195 -46 -205 -53 -5 -4 -28 -11 -50 -14 -22 -4
-62 -18 -90 -32 -53 -26 -51 -26 48 -8 30 6 31 5 12 -9 -11 -8 -40 -17 -65
-20 -25 -3 -85 -18 -135 -33 -49 -14 -99 -28 -110 -31 l-20 -4 20 12 c11 7 47
23 80 36 33 12 50 22 38 22 -12 1 -34 -4 -50 -10 -15 -6 -52 -15 -81 -20 -29
-6 -74 -21 -101 -35 -53 -26 -87 -32 -75 -12 5 8 2 9 -10 5 -10 -4 -25 -7 -34
-7 -15 -1 -15 -2 2 -15 18 -14 18 -15 -8 -25 -15 -5 -30 -9 -34 -9 -19 3 -23
-2 -12 -16 10 -12 7 -15 -13 -20 -14 -4 -35 -1 -48 6 -21 11 -26 8 -55 -25
-29 -33 -39 -38 -91 -43 -56 -5 -98 -27 -87 -44 3 -5 -8 -12 -25 -15 -17 -4
-37 -17 -46 -30 -11 -17 -25 -24 -49 -24 -18 0 -39 -7 -46 -15 -7 -8 -23 -15
-37 -15 -36 0 -83 -28 -83 -49 0 -19 -25 -35 -40 -26 -5 3 -11 1 -15 -5 -3 -5
-2 -10 3 -10 6 0 8 -9 5 -21 -5 -17 -11 -20 -36 -15 -36 7 -112 -28 -135 -61
-8 -13 -21 -23 -28 -23 -17 0 -19 -20 -1 -21 6 0 1 -6 -13 -12 -14 -7 -32 -16
-40 -22 -31 -21 -84 -34 -91 -24 -4 7 -17 6 -37 -5 -43 -22 -72 -21 -72 4 0
11 -5 20 -12 20 -21 0 1 13 53 31 29 9 58 15 66 12 7 -3 35 0 62 7 37 9 56 21
80 51 36 44 33 48 -16 18 -19 -12 -37 -18 -41 -14 -4 3 0 10 9 15 9 5 27 18
40 29 13 12 -118 -50 -292 -137 -174 -86 -327 -162 -340 -168 -13 -6 -54 -27
-92 -47 -37 -21 -74 -37 -83 -37 -9 0 -37 -11 -63 -24 -25 -12 -99 -49 -163
-80 -64 -31 -120 -61 -123 -66 -3 -6 -14 -10 -24 -10 -10 0 -45 -13 -79 -30
-34 -16 -66 -30 -70 -30 -4 0 -41 -17 -82 -38 -41 -21 -95 -44 -120 -52 -25
-7 -49 -17 -55 -22 -5 -4 -17 -8 -26 -8 -9 0 -19 -6 -22 -14 -3 -8 -20 -17
-38 -21 -17 -4 -59 -21 -93 -39 -33 -17 -101 -46 -151 -65 -123 -44 -160 -59
-230 -91 -33 -15 -72 -30 -87 -34 -16 -3 -28 -11 -28 -17 0 -6 -5 -7 -10 -4
-6 4 -16 2 -23 -3 -7 -5 -30 -15 -52 -21 -22 -7 -49 -16 -60 -21 -11 -5 -56
-19 -100 -32 -72 -22 -80 -27 -83 -51 -2 -15 -1 -27 2 -27 8 0 160 62 271 110
50 22 155 65 235 95 80 31 163 65 185 75 22 10 69 30 105 45 36 14 98 42 138
61 l72 34 73 -39 c43 -23 93 -42 123 -46 39 -5 59 -14 80 -36 44 -46 88 -53
169 -28 103 32 118 55 134 205 6 48 4 92 -5 135 -7 35 -12 64 -11 64 127 64
201 94 248 99 51 5 57 4 81 -22 24 -27 97 -118 150 -190 16 -20 35 -46 43 -57
8 -10 15 -23 15 -27 0 -14 255 -287 305 -326 51 -40 135 -69 226 -79 54 -6 85
8 170 73 85 65 108 141 74 244 -15 43 -15 43 -10 8 5 -35 4 -38 -40 -64 -40
-23 -50 -25 -69 -15 -12 7 -26 11 -32 10 -16 -5 -86 12 -101 24 -8 7 -32 29
-54 50 -21 20 -43 37 -49 37 -5 0 -10 7 -10 15 0 8 -9 24 -20 35 -25 25 -41
63 -47 113 -5 34 -3 37 21 37 14 0 26 5 26 10 0 6 10 10 23 10 13 0 27 4 33
10 17 17 111 16 131 -1 28 -24 93 -59 93 -50 0 4 -12 18 -26 32 -31 29 -151
188 -184 244 -13 22 -29 43 -34 47 -15 10 -8 13 58 27 39 9 54 16 45 21 -8 6
-1 8 21 8 19 -1 53 -13 75 -27 91 -58 204 -145 216 -167 7 -13 18 -24 25 -24
7 0 30 -20 51 -43 21 -24 54 -52 73 -62 19 -10 90 -56 158 -102 126 -87 253
-153 294 -153 13 0 41 -12 63 -25 70 -43 151 -29 233 40 58 48 67 158 17 185
-14 7 -25 19 -25 27 0 13 -9 15 -97 17 -43 1 -55 5 -73 29 -12 15 -29 27 -38
27 -9 0 -28 12 -41 25 -13 14 -27 25 -32 25 -12 0 -69 65 -87 99 -24 46 -41
91 -34 90 4 -1 28 -1 55 0 35 1 47 5 47 16 0 12 10 16 43 15 23 -1 57 3 75 7
l34 8 -24 30 c-12 17 -30 38 -38 49 -8 10 -44 40 -80 68 -73 56 -144 138 -130
152 5 5 17 9 27 10 46 5 93 19 104 32 6 8 15 11 19 9 5 -3 30 -1 55 5 l47 10
77 -72 c72 -68 91 -79 267 -160 319 -147 377 -164 443 -130 77 39 97 112 61
220 -12 37 -27 73 -32 80 -6 6 -13 26 -17 44 -8 38 10 32 -271 94 -36 8 -80
12 -98 9 -23 -4 -32 -3 -27 4 9 16 50 13 156 -9 150 -33 201 -42 207 -36 10
10 -31 46 -62 55 -17 5 -23 10 -14 10 30 2 8 31 -23 31 -15 0 -40 5 -54 12
-20 9 -28 9 -38 -1 -9 -9 -9 -14 3 -21 13 -9 13 -10 0 -10 -8 0 -25 -3 -38 -6
-26 -7 -28 16 -2 27 10 4 1 9 -22 14 -21 4 -35 11 -33 16 10 15 -44 22 -90 10
-24 -6 -54 -10 -67 -10 -17 1 -18 3 -5 6 9 2 15 8 13 11 -2 4 21 8 52 10 32 1
65 5 76 8 12 4 16 2 12 -4 -8 -13 69 -36 86 -26 7 4 8 3 4 -4 -9 -15 -7 -15
32 -1 21 7 29 15 25 26 -4 10 0 14 13 11 11 -2 18 2 17 9 -2 8 12 5 40 -7 45
-21 87 -26 87 -11 0 5 7 11 16 13 11 2 3 10 -22 24 -38 20 -41 20 -134 4 -52
-9 -107 -20 -122 -25 -20 -5 -28 -3 -28 5 0 7 -7 10 -15 6 -8 -3 -15 -1 -15 5
0 7 10 9 26 5 17 -5 23 -3 19 4 -3 5 -1 10 4 10 6 0 11 5 11 10 0 6 -7 10 -15
10 -8 0 -15 5 -15 10 0 6 4 10 10 10 5 0 7 6 4 14 -3 9 3 17 15 21 23 7 27 20
11 30 -6 4 -9 1 -8 -5 2 -7 -7 -16 -19 -21 -17 -6 -23 -5 -23 5 0 7 -7 19 -15
26 -15 13 -12 30 7 30 5 0 8 -7 4 -15 -3 -9 0 -15 10 -15 10 0 14 6 10 15 -9
24 16 33 147 52 20 3 40 9 43 14 5 9 -2 9 -46 2z m-330 -158 c-7 -8 -18 -15
-24 -15 -6 0 -2 7 8 15 25 19 32 19 16 0z m46 -30 c16 -8 24 -15 17 -15 -6 0
-18 -3 -26 -6 -9 -3 -16 3 -20 15 -6 25 -7 25 29 6z m-96 -45 c-20 -13 -77
-13 -64 -1 9 10 65 19 74 13 2 -2 -2 -7 -10 -12z m505 0 c-3 -5 -12 -7 -20 -3
-21 7 -19 13 6 13 11 0 18 -4 14 -10z m-830 -34 c-11 -8 -23 -12 -28 -9 -13 8
3 23 26 23 20 0 20 0 2 -14z m390 -26 c16 -7 12 -9 -18 -9 -23 -1 -36 3 -32 9
7 12 23 12 50 0z m-288 -16 c-3 -3 -12 -4 -19 -1 -8 3 -5 6 6 6 11 1 17 -2 13
-5z m-302 -65 c-4 -5 -33 -9 -66 -9 -33 0 -59 -4 -59 -10 0 -5 6 -10 13 -10 8
0 7 -4 -3 -10 -22 -14 -40 -12 -40 4 0 21 16 29 85 42 62 11 80 10 70 -7z
m518 4 c-7 -2 -19 -2 -25 0 -7 3 -2 5 12 5 14 0 19 -2 13 -5z m57 -25 c0 -4
-19 -8 -42 -7 -34 1 -38 2 -18 8 32 9 60 9 60 -1z m-747 -17 c-6 -25 -43 -24
-43 1 0 12 8 18 24 18 19 0 23 -4 19 -19z m657 5 c0 -2 -9 -6 -20 -9 -11 -3
-18 -1 -14 4 5 9 34 13 34 5z m-175 -26 c3 -5 -1 -10 -10 -10 -9 0 -13 5 -10
10 3 6 8 10 10 10 2 0 7 -4 10 -10z m-620 -10 c3 -5 1 -10 -4 -10 -6 0 -11 5
-11 10 0 6 2 10 4 10 3 0 8 -4 11 -10z m-319 -239 c-7 -10 -66 -33 -66 -25 0
4 57 32 68 34 2 0 1 -4 -2 -9z m-186 -145 c0 -9 -40 -13 -46 -5 -3 5 6 9 20 9
14 0 26 -2 26 -4z m-95 -46 c-11 -5 -60 -8 -110 -8 -68 1 -80 3 -50 8 59 11
185 11 160 0z m-237 -9 c1 -1 2 -5 2 -10 0 -12 -141 -2 -155 11 -6 6 20 8 70
4 44 -2 81 -5 83 -5z"/>
<path d="M2515 2650 c-3 -5 -1 -10 4 -10 6 0 11 5 11 10 0 6 -2 10 -4 10 -3 0
-8 -4 -11 -10z"/>
<path d="M3228 2653 c7 -3 16 -2 19 1 4 3 -2 6 -13 5 -11 0 -14 -3 -6 -6z"/>
<path d="M638 2640 c-42 -8 -81 -37 -71 -53 4 -6 -2 -8 -15 -5 -18 5 -24 1
-29 -20 -4 -15 -7 -31 -8 -36 0 -5 -6 -11 -14 -14 -8 -3 -11 -1 -8 4 3 5 -6
10 -20 11 -15 0 -21 -2 -16 -5 7 -5 6 -11 -3 -20 -12 -11 -14 -9 -14 8 0 19
-4 21 -32 15 -18 -4 -43 -12 -55 -19 -21 -11 -21 -11 -2 -34 l19 -24 96 38
c52 21 105 48 117 60 64 64 101 104 97 103 -3 -1 -22 -5 -42 -9z m-208 -124
c0 -2 -7 -7 -16 -10 -8 -3 -12 -2 -9 4 6 10 25 14 25 6z"/>
<path d="M3114 2613 c-46 -4 -55 -9 -117 -67 -56 -54 -63 -65 -46 -69 10 -3
17 -1 14 3 -10 15 14 21 37 9 13 -6 20 -8 15 -4 -10 11 32 55 53 55 10 0 33
12 53 28 19 15 43 32 53 39 14 9 15 11 4 11 -8 -1 -38 -3 -66 -5z"/>
<path d="M4765 2610 c-11 -4 -24 -6 -30 -5 -5 1 -7 0 -2 -2 4 -3 4 -9 1 -15
-5 -7 3 -9 22 -4 34 9 37 11 33 24 -2 5 -13 6 -24 2z"/>
<path d="M1804 2595 c-10 -8 -14 -15 -8 -15 6 0 17 7 24 15 16 19 9 19 -16 0z"/>
<path d="M3005 2600 c-3 -5 1 -10 9 -10 8 0 18 5 21 10 3 6 -1 10 -9 10 -8 0
-18 -4 -21 -10z"/>
<path d="M4200 2600 c0 -5 7 -7 15 -4 8 4 15 8 15 10 0 2 -7 4 -15 4 -8 0 -15
-4 -15 -10z"/>
<path d="M4423 2603 c-18 -7 -16 -23 2 -23 8 0 15 7 15 15 0 8 -1 15 -2 14 -2
0 -9 -3 -15 -6z"/>
<path d="M155 2590 c-4 -6 -10 -8 -14 -6 -4 3 -8 -1 -8 -9 0 -12 4 -12 21 2
12 10 23 19 25 20 2 2 -1 3 -7 3 -6 0 -14 -5 -17 -10z"/>
<path d="M1722 2584 c-23 -16 -48 -54 -35 -54 4 0 21 16 36 35 31 39 31 42 -1
19z"/>
<path d="M4316 2585 c-3 -8 -1 -15 4 -15 6 0 10 7 10 15 0 8 -2 15 -4 15 -2 0
-6 -7 -10 -15z"/>
<path d="M4663 2593 c-13 -2 -23 -10 -23 -17 0 -17 45 -9 61 10 12 15 8 16
-38 7z"/>
<path d="M458 2563 c7 -3 16 -2 19 1 4 3 -2 6 -13 5 -11 0 -14 -3 -6 -6z"/>
<path d="M4350 2560 c0 -5 -15 -8 -34 -5 -22 2 -39 -1 -46 -11 -10 -12 -8 -14
16 -13 42 1 77 13 82 27 2 6 -1 12 -7 12 -6 0 -11 -4 -11 -10z"/>
<path d="M3617 2540 c-21 -25 -21 -30 -2 -30 12 0 35 28 35 44 0 12 -16 5 -33
-14z"/>
<path d="M2183 2535 c-17 -7 -34 -11 -36 -8 -3 3 -14 0 -24 -6 -17 -10 -17
-10 3 -11 22 0 94 27 94 35 0 6 0 7 -37 -10z"/>
<path d="M3662 2538 c-7 -7 -12 -16 -12 -20 0 -15 15 -8 28 12 13 22 3 27 -16
8z"/>
<path d="M4450 2538 c0 -5 11 -8 25 -8 14 0 25 3 25 8 0 4 -11 7 -25 7 -14 0
-25 -3 -25 -7z"/>
<path d="M210 2530 c-22 -13 -5 -23 27 -16 21 6 24 9 12 17 -18 11 -20 11 -39
-1z"/>
<path d="M4350 2533 c-39 -7 -46 -21 -17 -34 29 -13 113 -4 123 13 4 7 2 8 -4
4 -7 -4 -12 -1 -12 8 0 9 -7 16 -16 16 -8 0 -12 -4 -9 -10 3 -5 2 -10 -4 -10
-5 0 -13 5 -16 10 -3 6 -9 9 -13 9 -4 -1 -18 -4 -32 -6z"/>
<path d="M1185 2514 c-38 -8 -88 -18 -109 -22 -22 -4 -41 -13 -44 -21 -3 -9 0
-11 8 -6 9 6 9 2 -1 -16 -9 -18 -13 -20 -16 -9 -3 8 -7 22 -10 30 -4 8 -5 18
-5 23 4 18 -18 4 -42 -28 -15 -20 -32 -32 -38 -29 -6 4 -17 -1 -25 -11 -7 -11
-13 -15 -13 -9 0 5 -16 10 -36 11 -48 2 -51 8 -25 43 31 43 14 37 -44 -16 -27
-25 -38 -39 -23 -30 38 22 45 20 21 -6 -11 -13 -30 -42 -43 -65 -26 -47 -36
-53 -100 -60 -54 -5 -87 -25 -103 -61 -24 -55 -85 -91 -142 -84 -29 3 -45 0
-50 -9 -5 -7 -4 -14 3 -17 16 -5 15 -22 -1 -22 -8 0 -14 -6 -14 -14 0 -10 5
-11 16 -6 32 17 81 29 81 20 0 -5 11 -4 25 2 14 6 25 15 25 20 0 4 9 8 19 8
11 0 23 5 26 10 3 6 24 10 45 10 21 0 61 11 88 25 28 14 57 25 65 25 21 0 47
11 47 19 0 4 -17 6 -37 5 -21 -2 -27 0 -13 2 38 8 139 43 174 61 17 9 44 16
61 15 29 -1 29 0 8 11 -18 10 -20 15 -9 29 7 10 15 15 18 12 3 -3 22 1 41 10
19 8 38 12 41 8 3 -3 6 0 6 7 0 14 66 45 93 43 9 0 17 3 17 7 0 5 20 14 45 20
27 7 49 19 55 32 10 19 10 20 -9 10 -34 -19 -37 -12 -6 14 34 27 29 28 -70 9z
m-85 -34 c-8 -5 -19 -10 -25 -10 -5 0 -3 5 5 10 8 5 20 10 25 10 6 0 3 -5 -5
-10z m-245 -140 c-3 -6 1 -7 9 -4 9 3 16 2 16 -4 0 -13 -44 -24 -48 -12 -2 6
-10 10 -18 10 -9 0 -13 -3 -11 -7 3 -5 -10 -9 -29 -10 -36 -2 -42 5 -22 25 15
15 112 17 103 2z m-195 -140 c-19 -13 -30 -13 -30 0 0 6 10 10 23 10 18 0 19
-2 7 -10z m-89 -14 c-7 -8 -21 -12 -31 -9 -27 7 -15 23 17 23 21 0 23 -3 14
-14z"/>
<path d="M2390 2509 c0 -5 5 -7 10 -4 6 3 10 8 10 11 0 2 -4 4 -10 4 -5 0 -10
-5 -10 -11z"/>
<path d="M2876 2489 c-17 -16 -17 -19 -3 -19 14 0 47 25 47 36 0 11 -27 1 -44
-17z"/>
<path d="M65 2476 c-9 -14 -13 -15 -9 -4 4 12 0 16 -12 14 -12 -2 -18 -11 -18
-27 0 -13 -6 -30 -13 -37 -15 -16 -17 -38 -3 -47 5 -3 10 -1 10 5 0 19 98 44
173 43 20 0 24 3 15 8 -10 7 -8 9 6 9 16 0 17 2 5 16 -12 15 -11 16 6 11 11
-3 35 2 55 13 l35 19 -117 -1 c-107 -1 -119 -3 -133 -22z m178 7 c-7 -2 -19
-2 -25 0 -7 3 -2 5 12 5 14 0 19 -2 13 -5z m-106 -49 c-3 -3 -12 -4 -19 -1 -8
3 -5 6 6 6 11 1 17 -2 13 -5z"/>
<path d="M2200 2480 c0 -5 5 -10 10 -10 6 0 10 5 10 10 0 6 -4 10 -10 10 -5 0
-10 -4 -10 -10z"/>
<path d="M4468 2483 c12 -2 30 -2 40 0 9 3 -1 5 -23 4 -22 0 -30 -2 -17 -4z"/>
<path d="M2927 2453 c-14 -13 -6 -33 12 -33 19 0 35 23 24 34 -8 8 -28 8 -36
-1z"/>
<path d="M355 2423 c-27 -8 -57 -19 -65 -24 -35 -20 -79 -39 -140 -59 -149
-49 -150 -49 -150 -87 0 -24 4 -34 13 -30 130 55 232 100 271 121 27 14 55 26
63 26 20 0 75 29 96 51 17 18 17 19 -10 18 -15 0 -50 -8 -78 -16z"/>
<path d="M2848 2433 c6 -2 18 -2 25 0 6 3 1 5 -13 5 -14 0 -19 -2 -12 -5z"/>
<path d="M1225 2420 c-3 -5 -1 -10 4 -10 6 0 11 5 11 10 0 6 -2 10 -4 10 -3 0
-8 -4 -11 -10z"/>
<path d="M1626 2414 c-9 -22 3 -32 14 -14 12 19 12 30 1 30 -5 0 -12 -7 -15
-16z"/>
<path d="M1500 2398 c-12 -22 -12 -22 6 -6 10 10 15 20 12 24 -4 3 -12 -5 -18
-18z"/>
<path d="M1207 2399 c7 -7 15 -10 18 -7 3 3 -2 9 -12 12 -14 6 -15 5 -6 -5z"/>
<path d="M4315 2390 c3 -5 10 -10 16 -10 5 0 9 5 9 10 0 6 -7 10 -16 10 -8 0
-12 -4 -9 -10z"/>
<path d="M1943 2378 c-18 -6 -33 -15 -33 -20 0 -4 17 -1 37 7 61 25 58 33 -4
13z"/>
<path d="M2015 2350 c-33 -17 -66 -30 -72 -30 -7 0 -13 -4 -13 -10 0 -5 9 -10
21 -10 31 0 139 52 139 67 0 18 -6 16 -75 -17z"/>
<path d="M0 2341 c0 -18 3 -19 30 -9 44 15 46 28 6 28 -29 0 -36 -4 -36 -19z"/>
<path d="M1030 2350 c0 -5 6 -10 14 -10 8 0 20 -2 28 -5 7 -3 22 1 33 10 19
14 19 15 -7 5 -18 -6 -29 -6 -33 0 -8 13 -35 13 -35 0z"/>
<path d="M990 2340 c-8 -5 -10 -10 -5 -10 6 0 17 5 25 10 8 5 11 10 5 10 -5 0
-17 -5 -25 -10z"/>
<path d="M3138 2329 c-10 -5 -18 -15 -18 -20 0 -14 61 -1 80 17 12 12 10 14
-15 14 -17 0 -38 -5 -47 -11z"/>
<path d="M1231 2318 c-19 -5 -43 -7 -53 -5 -10 3 -18 1 -18 -4 0 -5 -11 -9
-25 -9 -14 0 -25 -4 -25 -9 0 -4 -23 -9 -50 -10 -35 0 -49 3 -44 10 11 19 -36
0 -120 -48 -44 -25 -89 -46 -102 -47 -12 0 -20 -4 -18 -7 1 -3 -9 -6 -24 -6
-15 0 -43 -7 -62 -15 -19 -8 -48 -20 -64 -27 -16 -6 -26 -14 -23 -18 4 -3 13
0 22 7 9 7 18 10 22 6 8 -7 -27 -35 -44 -36 -7 0 -13 -3 -13 -7 0 -5 -10 -9
-23 -9 -28 -2 -124 -47 -109 -52 6 -2 25 4 42 13 18 9 34 14 36 12 3 -2 -32
-23 -77 -47 -44 -23 -89 -50 -98 -59 -10 -10 -24 -18 -32 -18 -23 0 -169 -73
-169 -85 0 -5 7 -7 16 -4 9 3 28 9 42 12 15 4 34 12 42 19 8 7 33 18 55 25 65
21 80 30 64 42 -11 8 -9 8 5 4 11 -4 23 0 30 8 16 21 103 47 131 40 15 -4 45
5 87 24 35 17 92 42 128 57 87 37 503 235 515 246 11 11 1 10 -44 -3z m-266
-103 c-82 -29 -95 -30 -95 -10 0 19 25 25 150 32 8 1 -16 -9 -55 -22z m-210
-45 c-3 -5 -16 -10 -28 -9 -21 0 -21 1 -2 9 28 12 37 12 30 0z m50 0 c-3 -5
-14 -10 -23 -10 -15 0 -15 2 -2 10 20 13 33 13 25 0z"/>
<path d="M560 2300 c-8 -5 -12 -11 -9 -14 2 -3 11 -1 19 4 8 5 12 11 9 14 -2
3 -11 1 -19 -4z"/>
<path d="M875 2260 c-3 -6 1 -7 9 -4 18 7 21 14 7 14 -6 0 -13 -4 -16 -10z"/>
<path d="M1200 2209 c-63 -32 -196 -96 -295 -144 -99 -47 -222 -106 -272 -131
-51 -24 -96 -44 -99 -44 -4 0 -102 -47 -219 -105 -117 -58 -215 -105 -218
-105 -11 0 -98 -53 -93 -57 2 -3 14 1 26 7 12 6 48 11 81 11 32 0 84 7 114 15
65 16 76 17 55 4 -24 -15 5 -12 36 5 l29 15 -30 0 c-16 0 -68 -5 -114 -10 -47
-5 -87 -7 -89 -5 -7 7 80 45 103 45 17 0 17 -2 5 -10 -11 -7 2 -10 44 -10 48
0 56 2 47 14 -9 11 -5 15 20 20 17 3 39 6 48 6 14 -1 14 -2 -1 -14 -10 -7 -18
-16 -18 -20 0 -12 27 -6 78 19 29 14 58 25 66 25 15 0 89 40 84 45 -7 6 -196
-24 -214 -33 -21 -13 -126 -44 -130 -39 -12 12 152 101 224 122 35 10 26 -13
-11 -29 l-32 -13 50 0 c35 0 43 2 25 6 l-25 7 25 7 c14 4 52 7 85 7 34 0 88 7
120 16 71 18 196 76 216 100 29 35 162 124 185 124 4 0 -5 -9 -18 -20 -25 -19
-44 -60 -28 -60 4 0 26 24 48 53 39 51 129 143 186 190 58 48 18 42 -94 -14z
m-254 -238 c-3 -4 -34 -10 -69 -13 -34 -3 -96 -18 -136 -34 -78 -30 -83 -46
-6 -20 56 20 68 20 35 1 l-25 -14 35 -1 c25 0 31 -3 20 -9 -25 -15 -100 -24
-100 -12 0 5 -12 9 -27 8 -20 -1 -27 2 -25 13 3 11 -1 10 -17 -4 -11 -10 -34
-22 -53 -26 -18 -5 -44 -12 -58 -16 -51 -15 -1 24 53 42 29 9 54 20 57 24 9
13 79 32 91 24 7 -4 9 -3 6 3 -9 14 104 39 186 42 21 0 36 -3 33 -8z m-509
-227 c-3 -3 -12 -4 -19 -1 -8 3 -5 6 6 6 11 1 17 -2 13 -5z"/>
<path d="M3065 2260 c3 -5 11 -10 16 -10 6 0 7 5 4 10 -3 6 -11 10 -16 10 -6
0 -7 -4 -4 -10z"/>
<path d="M229 2202 c-22 -23 -67 -57 -153 -116 -86 -59 -80 -55 -74 -61 3 -3
40 20 84 52 43 31 103 72 132 90 29 19 50 38 47 43 -8 13 -17 11 -36 -8z"/>
<path d="M1768 2183 c-72 -27 -90 -44 -35 -34 32 6 117 47 117 56 0 7 -9 5
-82 -22z"/>
<path d="M2722 2130 c-18 -11 -39 -20 -46 -20 -8 0 -16 -7 -20 -15 -4 -13 2
-14 37 -9 69 11 112 28 115 47 5 24 -44 23 -86 -3z"/>
<path d="M250 2068 c-25 -16 -62 -31 -82 -35 -21 -3 -38 -9 -38 -14 0 -13 13
-11 66 7 52 18 70 13 24 -6 -20 -8 -27 -16 -20 -20 8 -5 0 -11 -19 -18 -19 -7
-33 -7 -36 -1 -4 5 2 9 12 10 10 1 1 5 -20 10 -31 7 -48 5 -86 -12 -41 -17
-48 -24 -49 -50 0 -16 4 -27 9 -23 5 3 6 10 3 16 -5 8 -1 9 10 5 9 -4 15 -3
12 2 -10 15 40 29 85 24 50 -6 134 22 111 36 -15 9 76 41 118 41 45 0 63 10
49 26 -13 16 -33 19 -24 4 3 -6 -1 -7 -9 -4 -9 3 -16 2 -16 -4 0 -5 -18 -9
-40 -8 -34 1 -38 3 -24 13 9 6 14 16 13 21 -2 5 -24 -4 -49 -20z"/>
<path d="M2750 2076 c0 -8 -6 -17 -12 -19 -7 -3 -3 -6 8 -6 12 -1 25 6 28 15
9 22 8 24 -9 24 -8 0 -15 -6 -15 -14z"/>
<path d="M280 1971 c-141 -71 -243 -131 -222 -131 7 0 24 7 37 16 13 9 29 13
35 9 6 -4 19 -1 28 7 9 8 35 22 57 32 90 42 124 60 120 67 -3 3 21 20 53 37
108 59 27 31 -108 -37z"/>
<path d="M1133 2028 c-25 -32 -26 -40 -4 -29 11 7 21 18 21 26 0 18 -5 19 -17
3z"/>
<path d="M998 1967 c-15 -12 -38 -30 -52 -40 -15 -10 -24 -22 -21 -28 4 -5 -1
-9 -9 -9 -16 0 -37 -18 -66 -55 -15 -19 -15 -19 15 -1 45 28 75 58 75 74 0 9
3 12 6 9 9 -9 61 30 74 54 13 24 11 24 -22 -4z"/>
<path d="M478 1973 c7 -3 16 -2 19 1 4 3 -2 6 -13 5 -11 0 -14 -3 -6 -6z"/>
<path d="M458 1950 c-14 -4 -39 -15 -55 -24 -15 -9 -46 -23 -68 -30 -22 -8
-33 -15 -24 -15 19 -1 158 56 174 70 10 10 10 10 -27 -1z"/>
<path d="M2005 1884 c-27 -17 -32 -23 -16 -18 34 9 90 44 71 44 -8 0 -33 -12
-55 -26z"/>
<path d="M28 1868 c-16 -5 -28 -14 -28 -19 0 -5 13 -3 30 6 17 9 30 18 30 20
0 3 -1 5 -2 4 -2 0 -15 -5 -30 -11z"/>
<path d="M225 1844 c-22 -8 -51 -12 -63 -9 -13 3 -21 2 -18 -3 6 -10 -42 -35
-54 -27 -4 3 -25 -1 -46 -8 -27 -10 -38 -20 -39 -36 -1 -16 2 -20 14 -15 9 4
34 12 56 18 22 7 56 22 75 34 19 12 52 27 72 32 20 6 40 15 43 20 7 12 10 12
-40 -6z m-170 -64 c-3 -5 -12 -10 -18 -10 -7 0 -6 4 3 10 19 12 23 12 15 0z"/>
<path d="M1195 1843 c-16 -10 -39 -18 -50 -20 -11 -2 -24 -8 -29 -13 -15 -15
15 -12 48 5 15 8 34 15 41 15 7 0 18 7 25 15 16 19 3 18 -35 -2z"/>
<path d="M18 1833 c-10 -2 -18 -12 -18 -20 0 -14 3 -14 20 2 17 15 26 28 18
24 -2 -1 -11 -3 -20 -6z"/>
<path d="M563 1724 c-24 -14 -43 -30 -43 -35 0 -12 72 25 89 45 19 23 2 19
-46 -10z"/>
<path d="M1010 1740 l-25 -8 28 -1 c15 -1 27 4 27 9 0 6 -1 10 -2 9 -2 -1 -14
-5 -28 -9z"/>
<path d="M683 1664 c-29 -14 -53 -29 -53 -34 0 -22 47 -20 116 5 74 27 94 45
52 45 -13 0 -32 2 -43 5 -11 2 -44 -7 -72 -21z"/>
<path d="M394 1646 c-110 -40 -399 -184 -389 -194 2 -2 84 32 182 77 98 44
184 81 191 81 17 0 109 47 117 60 9 15 -1 12 -101 -24z"/>
<path d="M98 1617 l-98 -9 2 -40 c1 -39 2 -40 32 -35 38 7 209 97 181 95 -11
0 -64 -5 -117 -11z"/>
<path d="M4787 1533 c-4 -3 -7 -21 -7 -40 0 -18 -3 -34 -7 -34 -5 -1 -18 -3
-29 -4 -35 -4 -44 -14 -44 -50 0 -25 9 -43 30 -65 32 -33 39 -60 15 -60 -10 0
-15 -10 -15 -30 0 -16 4 -30 10 -30 13 0 37 37 51 80 11 30 10 35 -9 48 -29
19 -28 25 10 97 18 36 29 68 25 78 -7 18 -19 22 -30 10z"/>
<path d="M884 1394 c-18 -14 -18 -15 4 -4 12 6 22 13 22 15 0 8 -5 6 -26 -11z"/>
<path d="M834 1364 c-18 -14 -18 -15 4 -4 12 6 22 13 22 15 0 8 -5 6 -26 -11z"/>
<path d="M790 1340 c-9 -6 -10 -10 -3 -10 6 0 15 5 18 10 8 12 4 12 -15 0z"/>
<path d="M2850 1344 c0 -6 7 -19 15 -30 8 -10 14 -14 14 -9 0 6 -6 19 -14 29
-8 11 -15 15 -15 10z"/>
<path d="M750 1320 c-9 -6 -10 -10 -3 -10 6 0 15 5 18 10 8 12 4 12 -15 0z"/>
<path d="M4810 1180 c0 -5 -11 -10 -24 -10 -13 0 -28 -6 -33 -12 -15 -19 -24
-64 -17 -83 6 -14 10 -12 25 12 11 15 19 36 19 46 0 10 11 22 25 27 24 9 35
30 15 30 -5 0 -10 -4 -10 -10z"/>
<path d="M288 1133 c7 -3 16 -2 19 1 4 3 -2 6 -13 5 -11 0 -14 -3 -6 -6z"/>
<path d="M1010 981 c0 -6 4 -11 8 -11 13 0 34 -68 28 -88 -4 -11 3 -33 17 -53
34 -50 39 -67 19 -65 -15 1 -17 -9 -15 -66 1 -38 -3 -68 -8 -68 -16 0 -10 -26
12 -54 18 -23 18 -27 5 -32 -23 -9 -20 -22 19 -69 34 -42 63 -137 37 -121 -17
10 -14 -15 3 -38 13 -17 13 -21 0 -30 -12 -10 -12 -14 0 -36 13 -22 14 -23 15
-5 2 26 7 55 25 133 21 88 19 104 -15 172 -39 77 -39 101 0 31 35 -63 46 -76
35 -42 -5 16 -4 21 4 17 6 -4 11 -2 11 4 0 7 -7 9 -16 6 -12 -5 -15 -2 -10 10
3 9 -3 32 -13 53 -11 20 -22 54 -26 76 -3 22 -10 69 -15 105 -15 97 -21 120
-31 120 -5 0 -9 -7 -9 -15 0 -26 -19 -16 -35 20 -18 37 -45 65 -45 46z"/>
<path d="M3278 954 c0 -16 -3 -94 -5 -174 -2 -80 -5 -163 -5 -185 -1 -22 1
-52 5 -66 6 -25 10 -27 54 -24 47 3 67 20 43 35 -8 5 -12 23 -10 47 5 74 3 93
-17 111 -14 13 -19 30 -19 72 -1 30 -9 82 -18 114 -12 42 -14 61 -6 66 8 5 6
11 -5 20 -13 11 -15 8 -17 -16z"/>
<path d="M547 963 c-2 -5 -1 -17 3 -27 6 -19 7 -19 12 2 6 21 -6 40 -15 25z"/>
<path d="M2978 916 c-4 -22 -5 -43 -2 -47 2 -4 21 -6 42 -4 36 3 39 1 51 -31
7 -19 9 -39 5 -45 -4 -7 -1 -10 7 -7 8 3 16 13 17 22 4 21 -19 106 -29 106 -4
0 -14 3 -22 6 -11 4 -17 -2 -20 -23 -3 -21 -4 -17 -6 15 0 23 -5 42 -11 42 -5
0 -11 -19 -12 -42 l-1 -43 -6 45 -6 45 -7 -39z"/>
<path d="M560 794 c0 -28 48 -140 56 -131 3 3 -1 25 -9 49 -8 23 -18 58 -22
76 -8 38 -25 43 -25 6z"/>
<path d="M3102 711 c4 -13 18 -16 19 -4 0 4 -5 9 -11 12 -7 2 -11 -2 -8 -8z"/>
<path d="M1212 670 c0 -14 2 -19 5 -12 2 6 2 18 0 25 -3 6 -5 1 -5 -13z"/>
<path d="M1261 674 c0 -11 3 -14 6 -6 3 7 2 16 -1 19 -3 4 -6 -2 -5 -13z"/>
<path d="M3667 673 c-11 -10 -8 -43 3 -43 6 0 10 11 10 25 0 26 -2 29 -13 18z"/>
<path d="M221 655 c0 -11 7 -29 15 -40 16 -19 16 -19 9 5 -4 14 -11 32 -16 40
-7 12 -8 11 -8 -5z"/>
<path d="M1186 642 c-2 -4 -1 -14 5 -22 7 -12 9 -10 9 8 0 23 -5 28 -14 14z"/>
<path d="M1258 633 c-20 -5 -25 -18 -33 -103 -5 -60 -5 -63 10 -46 14 18 20
51 16 83 -1 7 6 24 15 38 19 28 17 33 -8 28z"/>
<path d="M560 570 c5 -19 14 -38 20 -44 7 -7 6 2 -1 24 -16 46 -31 63 -19 20z"/>
<path d="M213 533 c-11 -34 -10 -41 7 -65 11 -15 20 -41 20 -59 0 -23 9 -40
37 -65 33 -31 38 -32 44 -17 4 10 1 28 -7 40 -8 12 -14 35 -14 51 0 16 -7 35
-15 42 -8 7 -15 23 -15 36 0 12 -10 35 -22 49 l-23 26 -12 -38z"/>
<path d="M165 500 c-3 -5 -1 -10 4 -10 6 0 11 5 11 10 0 6 -2 10 -4 10 -3 0
-8 -4 -11 -10z"/>
<path d="M541 495 c0 -11 4 -27 9 -35 9 -13 10 -13 9 0 0 8 -4 24 -9 35 l-9
20 0 -20z"/>
<path d="M1353 440 c0 -30 2 -43 4 -27 2 15 2 39 0 55 -2 15 -4 2 -4 -28z"/>
<path d="M3305 457 c-22 -17 -14 -67 11 -67 8 0 13 4 10 9 -3 5 0 11 7 14 17
6 21 57 4 57 -7 0 -21 -6 -32 -13z"/>
<path d="M650 451 c0 -5 5 -13 10 -16 6 -3 10 -2 10 4 0 5 -4 13 -10 16 -5 3
-10 2 -10 -4z"/>
<path d="M1242 435 c12 -27 28 -33 28 -10 0 8 -9 19 -20 25 -18 10 -19 9 -8
-15z"/>
<path d="M1311 434 c0 -11 3 -14 6 -6 3 7 2 16 -1 19 -3 4 -6 -2 -5 -13z"/>
<path d="M1436 435 c-7 -19 15 -165 25 -165 4 0 5 24 3 53 -3 28 -7 67 -8 84
-3 39 -11 50 -20 28z"/>
<path d="M2608 437 c-13 -30 -10 -163 2 -151 6 6 10 44 8 90 -2 47 -6 72 -10
61z"/>
<path d="M1189 354 c-9 -47 -12 -87 -7 -90 4 -3 8 -11 8 -17 0 -7 -4 -6 -10 3
-7 11 -10 6 -10 -20 0 -49 17 -104 40 -132 l20 -23 -4 80 c-3 44 -8 99 -11
123 -5 30 -4 42 5 42 9 0 9 4 2 13 -5 6 -13 23 -16 37 -5 18 0 15 18 -14 l25
-39 6 26 c5 18 0 37 -15 62 -12 19 -25 35 -29 35 -4 0 -14 -38 -22 -86z"/>
<path d="M695 420 c3 -5 8 -10 11 -10 2 0 4 5 4 10 0 6 -5 10 -11 10 -5 0 -7
-4 -4 -10z"/>
<path d="M530 410 c0 -11 21 -61 67 -158 24 -49 39 -70 45 -64 7 7 -4 40 -32
98 -23 48 -46 98 -51 111 -8 23 -29 32 -29 13z"/>
<path d="M1396 380 c-11 -56 -8 -69 15 -67 18 1 20 6 14 37 -11 56 -21 67 -29
30z"/>
<path d="M1096 387 c3 -10 9 -15 12 -12 3 3 0 11 -7 18 -10 9 -11 8 -5 -6z"/>
<path d="M1281 384 c0 -11 3 -14 6 -6 3 7 2 16 -1 19 -3 4 -6 -2 -5 -13z"/>
<path d="M3130 358 c-57 -39 -56 -88 5 -240 l48 -118 68 0 c49 0 69 4 69 13 0
16 -65 218 -78 243 -5 10 -18 37 -28 60 -14 31 -23 40 -36 36 -14 -3 -17 0
-12 12 8 21 3 20 -36 -6z"/>
<path d="M5510 355 c0 -9 6 -12 15 -9 8 4 15 7 15 9 0 2 -7 5 -15 9 -9 3 -15
0 -15 -9z"/>
<path d="M3952 343 c-11 -20 -10 -193 1 -210 9 -15 11 -86 3 -110 -7 -22 -5
-23 47 -23 l54 0 -5 30 c-3 18 0 30 7 30 17 0 13 40 -5 47 -24 9 -33 44 -20
83 15 43 10 76 -13 92 -9 7 -26 28 -38 47 -20 32 -21 33 -31 14z"/>
<path d="M230 326 c0 -7 11 -29 24 -49 13 -19 27 -45 31 -57 6 -18 9 -20 16
-9 18 28 8 56 -31 92 -22 19 -40 30 -40 23z"/>
<path d="M690 329 c0 -5 5 -7 10 -4 6 3 10 8 10 11 0 2 -4 4 -10 4 -5 0 -10
-5 -10 -11z"/>
<path d="M1280 304 c0 -22 7 -49 16 -60 15 -19 15 -19 6 0 -6 11 -6 29 -2 41
5 13 3 28 -6 40 -13 17 -14 15 -14 -21z"/>
<path d="M1226 295 c4 -8 8 -15 10 -15 2 0 4 7 4 15 0 8 -4 15 -10 15 -5 0 -7
-7 -4 -15z"/>
<path d="M4509 240 c-6 -16 -15 -30 -20 -30 -4 0 -6 -7 -3 -15 4 -8 18 -15 32
-15 19 0 23 3 15 11 -6 6 -9 26 -6 45 7 42 -4 44 -18 4z"/>
<path d="M1327 228 c-3 -21 2 -47 15 -71 16 -32 22 -37 34 -26 27 22 -4 129
-36 129 -4 0 -10 -15 -13 -32z"/>
<path d="M1406 232 c-3 -5 1 -15 9 -22 16 -14 20 -3 6 19 -5 8 -11 9 -15 3z"/>
<path d="M179 188 c17 -27 34 -48 37 -48 9 0 -30 61 -50 78 -11 9 -5 -4 13
-30z"/>
<path d="M1281 215 c0 -11 4 -27 9 -35 9 -13 10 -13 9 0 0 8 -4 24 -9 35 l-9
20 0 -20z"/>
<path d="M1537 218 c-3 -8 -2 -21 3 -27 11 -19 23 5 12 25 -8 14 -10 14 -15 2z"/>
<path d="M1511 185 c0 -16 4 -37 9 -45 8 -12 10 -10 9 10 0 14 -4 34 -9 45 -7
17 -9 16 -9 -10z"/>
<path d="M316 183 c-6 -14 -5 -15 5 -6 7 7 10 15 7 18 -3 3 -9 -2 -12 -12z"/>
<path d="M1246 149 c-10 -52 -7 -94 9 -115 14 -17 15 -12 9 61 -3 44 -7 81 -9
83 -1 1 -5 -12 -9 -29z"/>
<path d="M1410 170 c0 -5 5 -10 11 -10 5 0 7 5 4 10 -3 6 -8 10 -11 10 -2 0
-4 -4 -4 -10z"/>
<path d="M1492 145 c0 -16 2 -22 5 -12 2 9 2 23 0 30 -3 6 -5 -1 -5 -18z"/>
<path d="M514 138 c4 -13 9 -43 11 -68 l4 -45 -14 48 c-17 60 -25 70 -25 29 0
-61 25 -102 63 -102 13 0 16 6 12 23 -3 12 -7 34 -9 48 -5 29 -33 89 -42 89
-4 0 -3 -10 0 -22z"/>
<path d="M670 130 c0 -11 4 -20 9 -20 5 0 7 9 4 20 -3 11 -7 20 -9 20 -2 0 -4
-9 -4 -20z"/>
<path d="M3407 130 c-4 -15 2 -26 19 -37 31 -20 49 -6 40 31 -8 33 -51 37 -59
6z"/>
<path d="M1340 103 c11 -21 20 -45 20 -54 0 -9 6 -22 14 -28 24 -20 13 28 -17
77 -34 52 -44 55 -17 5z"/>
<path d="M1 108 c-1 -15 4 -30 9 -33 12 -7 12 12 0 40 -8 18 -9 17 -9 -7z"/>
<path d="M190 127 c0 -13 38 -81 60 -106 26 -31 36 -21 16 16 -18 32 -76 101
-76 90z"/>
<path d="M5186 113 c-7 -8 12 -43 24 -43 15 0 12 37 -4 43 -8 3 -17 3 -20 0z"/>
<path d="M439 85 c-2 -44 2 -69 12 -79 17 -18 20 22 5 66 -14 41 -15 42 -17
13z"/>
<path d="M295 50 c14 -29 29 -50 31 -47 7 7 -32 84 -47 92 -5 4 1 -16 16 -45z"/>
<path d="M1185 85 c4 -11 11 -35 17 -52 11 -41 18 -42 18 -4 0 16 -9 39 -21
52 -18 21 -20 21 -14 4z"/>
<path d="M1486 69 c9 -44 10 -45 16 -14 3 14 -1 30 -8 36 -12 9 -13 5 -8 -22z"/>
<path d="M4885 90 c3 -5 8 -10 11 -10 2 0 4 5 4 10 0 6 -5 10 -11 10 -5 0 -7
-4 -4 -10z"/>
<path d="M4792 55 c-17 -22 -32 -43 -32 -47 0 -5 18 -8 40 -8 43 0 61 19 42
43 -5 6 -11 21 -13 32 -4 16 -9 13 -37 -20z"/>
<path d="M4865 69 c-5 -8 -4 -10 4 -5 8 6 10 0 6 -21 -5 -27 -5 -27 6 -5 14
25 -2 55 -16 31z"/>
<path d="M192 35 c21 -31 38 -45 38 -29 0 15 -36 64 -47 64 -9 0 -6 -11 9 -35z"/>
<path d="M1537 31 c3 -12 9 -21 14 -21 14 0 11 16 -5 29 -12 10 -13 8 -9 -8z"/>
<path d="M1170 31 c0 -5 5 -13 10 -16 6 -3 10 -2 10 4 0 5 -4 13 -10 16 -5 3
-10 2 -10 -4z"/>
<path d="M4473 17 c2 -7 12 -14 21 -15 11 -3 17 1 14 9 -2 7 -12 13 -22 15 -9
1 -15 -3 -13 -9z"/>
<path d="M1240 10 c0 -5 5 -10 11 -10 5 0 7 5 4 10 -3 6 -8 10 -11 10 -2 0 -4
-4 -4 -10z"/>
</g>
</svg>
